Coordinates
version=1
nRows=29
nColumns=22
inDegrees=yes

Units are S.I. units (second, meters, Newtons, ...)
If the header above contains a line with 'inDegrees', this indicates whether rotational values are in degrees (yes) or radians (no).

endheader
time	pelvis_tilt	pelvis_list	pelvis_rotation	pelvis_tx	pelvis_ty	pelvis_tz	hip_flexion_r	hip_adduction_r	hip_rotation_r	knee_angle_r	ankle_angle_r	subtalar_angle_r	hip_flexion_l	hip_adduction_l	hip_rotation_l	knee_angle_l	ankle_angle_l	subtalar_angle_l	lumbar_extension	lumbar_bending	lumbar_rotation
      2.05000000	      7.02314295	     -2.78757620	     50.18178484	      0.64758016	      0.99447473	      0.44603105	     -9.52454070	      8.43665452	    -20.38003932	    -13.02752941	     17.05788618	      2.95128291	     24.50837377	     -9.33394367	    -21.69160625	    -23.53495213	     10.17780674	      0.01517146	    -18.28094208	      6.17994092	      6.49839733
      2.06000000	      7.18999378	     -2.71018742	     50.43262682	      0.65131344	      0.99332719	      0.44029923	    -10.11635924	      8.51564752	    -20.49581080	    -13.06247410	     17.21628055	      3.26821722	     24.35888785	     -9.45288587	    -22.28856000	    -23.49461833	      9.95956623	     -0.57746001	    -18.27139544	      6.10178377	      6.61928376
      2.07000000	      7.33842640	     -2.62019109	     50.66908783	      0.65508731	      0.99221069	      0.43442305	    -10.68335957	      8.55708574	    -20.58481746	    -13.15907884	     17.34992541	      3.62475202	     24.20710036	     -9.56139708	    -22.79737614	    -23.64472879	      9.70441726	     -1.34354532	    -18.24100120	      5.99042559	      6.71470137
      2.08000000	      7.47076423	     -2.51951439	     50.88282456	      0.65889535	      0.99115140	      0.42843478	    -11.21914267	      8.56127200	    -20.63750255	    -13.32618570	     17.46870062	      4.00487797	     24.05962562	     -9.66430797	    -23.18439571	    -23.98323996	      9.41290394	     -2.21611125	    -18.19601057	      5.84333097	      6.84184672
      2.09000000	      7.57570605	     -2.40414179	     51.09939845	      0.66270026	      0.99015675	      0.42229278	    -11.71129307	      8.51605450	    -20.68112798	    -13.57859443	     17.54100662	      4.42370897	     23.92843745	     -9.73569594	    -23.41907526	    -24.49386717	      9.12851868	     -3.17834539	    -18.12753771	      5.66277659	      6.91901854
      2.10000000	      7.66050985	     -2.26771903	     51.30782748	      0.66650119	      0.98927543	      0.41602933	    -12.16599433	      8.42224255	    -20.69530645	    -13.92013349	     17.57772500	      4.89978450	     23.79833422	     -9.77376165	    -23.49451251	    -25.14229188	      8.85263327	     -4.20250071	    -18.05624077	      5.44136778	      7.00575812
      2.11000000	      7.71811489	     -2.11160720	     51.52022642	      0.67025789	      0.98851636	      0.40961467	    -12.57317500	      8.27398121	    -20.68368853	    -14.35708991	     17.56771719	      5.41332864	     23.67393152	     -9.75842649	    -23.39521591	    -25.88910430	      8.60397879	     -5.17329164	    -17.97360717	      5.18656443	      7.06811325
      2.12000000	      7.74642665	     -1.93592649	     51.74187038	      0.67394704	      0.98789244	      0.40302564	    -12.92551244	      8.06585159	    -20.67152174	    -14.90085686	     17.49739276	      5.99289592	     23.55054393	     -9.67974058	    -23.14717919	    -26.69394542	      8.42414751	     -6.10837132	    -17.87842748	      4.90173242	      7.11075447
      2.13000000	      7.74460198	     -1.74014339	     51.97509576	      0.67752502	      0.98742256	      0.39626825	    -13.21142859	      7.79454761	    -20.63541485	    -15.56810001	     17.35697834	      6.61709430	     23.41642793	     -9.52739532	    -22.77419536	    -27.50683173	      8.31307674	     -6.92855881	    -17.77591071	      4.58980080	      7.13814719
      2.14000000	      7.72029497	     -1.52912275	     52.20983860	      0.68099955	      0.98712307	      0.38934919	    -13.43192061	      7.46683087	    -20.56784935	    -16.35868352	     17.14960725	      7.31302449	     23.25509388	     -9.31091449	    -22.31224599	    -28.28706332	      8.27600845	     -7.65904596	    -17.66820321	      4.25822732	      7.16927019
      2.15000000	      7.68507316	     -1.30619494	     52.45863289	      0.68431380	      0.98699973	      0.38228047	    -13.57915886	      7.09717487	    -20.44173056	    -17.29174330	     16.85865245	      8.08325940	     23.05458522	     -9.04115103	    -21.81559158	    -29.00154541	      8.30960521	     -8.29461152	    -17.56799755	      3.92916431	      7.20372122
      2.16000000	      7.60023682	     -1.06957811	     52.73324216	      0.68745300	      0.98702231	      0.37503135	    -13.62179791	      6.64618915	    -20.33138400	    -18.38348886	     16.49807427	      8.85258918	     22.81766824	     -8.67639644	    -21.30828533	    -29.60603797	      8.37266594	     -8.76245798	    -17.44166764	      3.57162437	      7.21228396
      2.17000000	      7.51426148	     -0.83978984	     53.00698422	      0.69046535	      0.98721914	      0.36765918	    -13.58562695	      6.17518301	    -20.12602518	    -19.60423092	     15.99442140	      9.72325308	     22.52232173	     -8.29425202	    -20.85171921	    -30.09877983	      8.53024243	     -9.18137759	    -17.30942961	      3.23369433	      7.22401160
      2.18000000	      7.39731336	     -0.61555986	     53.29693625	      0.69330424	      0.98754177	      0.36017879	    -13.43063744	      5.65112468	    -19.90374964	    -20.99509164	     15.40793276	     10.56967513	     22.18266939	     -7.86283226	    -20.45017560	    -30.46176729	      8.70002803	     -9.48640637	    -17.15348775	      2.89223014	      7.23541699
      2.19000000	      7.24198141	     -0.40513122	     53.59424633	      0.69598848	      0.98796426	      0.35263690	    -13.14176923	      5.07392540	    -19.65224380	    -22.55811118	     14.73670555	     11.32187712	     21.80642760	     -7.38920555	    -20.12147067	    -30.69158148	      8.86572836	     -9.69131527	    -16.96261846	      2.53963819	      7.26059397
      2.20000000	      7.08704473	     -0.21836730	     53.91071569	      0.69852486	      0.98848616	      0.34504933	    -12.75244277	      4.49731558	    -19.33689876	    -24.25246800	     13.92380200	     12.09852450	     21.39026126	     -6.91691188	    -19.85180676	    -30.81026471	      9.08373904	     -9.86849037	    -16.75599095	      2.22082378	      7.26930863
      2.21000000	      6.92647996	     -0.05965644	     54.25331646	      0.70091723	      0.98907278	      0.33744621	    -12.25349905	      3.92227795	    -18.98437797	    -26.07527256	     12.98231508	     12.83511721	     20.94833922	     -6.44542109	    -19.63306979	    -30.82648293	      9.33993831	    -10.01295801	    -16.52557004	      1.93246227	      7.24705826
      2.22000000	      6.72751100	      0.08469695	     54.60995465	      0.70316530	      0.98968871	      0.32988169	    -11.62417655	      3.30329177	    -18.63317095	    -28.04673693	     11.96416846	     13.30325766	     20.49335380	     -5.93934564	    -19.45593944	    -30.74684267	      9.54780497	    -10.08418423	    -16.26857359	      1.62598493	      7.24015043
      2.23000000	      6.52114268	      0.20208442	     55.00259240	      0.70527234	      0.99030913	      0.32236295	    -10.89143498	      2.69174802	    -18.26062222	    -30.12369330	     10.84156399	     13.70817680	     20.03741760	     -5.43313332	    -19.28883169	    -30.60332971	      9.78988172	    -10.14525663	    -15.99451321	      1.34093322	      7.19287459
      2.24000000	      6.30461726	      0.31089505	     55.42630971	      0.70725739	      0.99092892	      0.31491259	    -10.07648043	      2.07308242	    -17.89383437	    -32.28764837	      9.63807612	     13.93039762	     19.57413539	     -4.92216830	    -19.14391704	    -30.41367517	     10.01860509	    -10.17758981	    -15.72036662	      1.06112208	      7.10657605
      2.25000000	      6.06988844	      0.39135831	     55.88053820	      0.70909019	      0.99148304	      0.30756471	     -9.15513081	      1.45731007	    -17.50847930	    -34.53305839	      8.43024420	     14.02902527	     19.13412553	     -4.39644620	    -18.95202607	    -30.18188319	     10.27115280	    -10.20106041	    -15.42927825	      0.79267728	      7.01268687
      2.26000000	      5.82181011	      0.46338848	     56.36493722	      0.71081101	      0.99198012	      0.30033998	     -8.15894070	      0.84018136	    -17.12572613	    -36.83122631	      7.21236993	     13.96443299	     18.70886196	     -3.86677349	    -18.76141108	    -29.93691111	     10.51320010	    -10.20785321	    -15.14393381	      0.51923873	      6.87900858
      2.27000000	      5.56652340	      0.53625925	     56.87709469	      0.71240108	      0.99241773	      0.29323600	     -7.10978446	      0.22466156	    -16.73820622	    -39.15337185	      6.02472915	     13.77040972	     18.29274733	     -3.33205054	    -18.56501769	    -29.69097486	     10.74636227	    -10.19954615	    -14.88043062	      0.24656481	      6.71859963
      2.28000000	      5.30233554	      0.55226638	     57.41474787	      0.71388601	      0.99268945	      0.28631949	     -5.95364401	     -0.34018723	    -16.31356547	    -41.48278555	      4.96112171	     13.38391034	     17.95008039	     -2.81700551	    -18.29495494	    -29.45525859	     11.04005642	    -10.18968213	    -14.58557051	     -0.00108618	      6.56161823
      2.29000000	      5.04444550	      0.61834527	     57.96210221	      0.71529482	      0.99299410	      0.27954935	     -4.82100300	     -0.90115845	    -15.84860860	    -43.76282072	      4.00644306	     13.01253941	     17.55115775	     -2.28294696	    -18.02605947	    -29.19580924	     11.27279534	    -10.16199066	    -14.37163797	     -0.27740339	      6.37149068
      2.30000000	      4.79662436	      0.65652750	     58.52606063	      0.71663033	      0.99318872	      0.27295628	     -3.64235380	     -1.40692246	    -15.36307035	    -45.97727707	      3.21367647	     12.56040160	     17.19544058	     -1.78298587	    -17.73205634	    -28.97046470	     11.53558568	    -10.13457879	    -14.16331907	     -0.53033762	      6.18489202
      2.31000000	      4.56551083	      0.69898604	     59.10226689	      0.71787923	      0.99334737	      0.26651629	     -2.46476150	     -1.86364529	    -14.84215199	    -48.08481166	      2.60292822	     12.10598785	     16.83994589	     -1.30222395	    -17.42466284	    -28.75940988	     11.78958027	    -10.10715007	    -13.99689890	     -0.76803846	      5.98979204
      2.32000000	      4.35918532	      0.73463369	     59.68670317	      0.71907896	      0.99347763	      0.26024738	     -1.29050576	     -2.25166871	    -14.28867715	    -50.05301431	      2.19467212	     11.65060017	     16.49067534	     -0.85402907	    -17.08893864	    -28.56374185	     12.04857458	    -10.08324222	    -13.86322555	     -0.98375862	      5.79759686
      2.33000000	      4.19061297	      0.74769229	     60.28266768	      0.72021705	      0.99357491	      0.25413815	     -0.11879858	     -2.55520074	    -13.72108848	    -51.85490032	      1.98750672	     11.16607907	     16.16234041	     -0.45910508	    -16.71587687	    -28.39686957	     12.32686662	    -10.06912201	    -13.75172750	     -1.15341336	      5.63071841
